<svg class="animated" id="freepik_stories-business-deal" xmlns="http://www.w3.org/2000/svg" xmlns:xlink="http://www.w3.org/1999/xlink" viewBox="0 0 500 500" version="1.1" xmlns:svgjs="http://svgjs.com/svgjs"><style>svg#freepik_stories-business-deal:not(.animated) .animable {opacity: 0;}svg#freepik_stories-business-deal.animated #freepik--Characters--inject-2750 {animation: 6s Infinite  linear floating;animation-delay: 0s;}            @keyframes floating {                0% {                    opacity: 1;                    transform: translateY(0px);                }                50% {                    transform: translateY(-10px);                }                100% {                    opacity: 1;                    transform: translateY(0px);                }            }        </style><g id="freepik--background-simple--inject-2750" class="animable" style="transform-origin: 264.029px 240.241px;"><path d="M131.92,120.89s-48.27,45.74-39.06,109.2S158.55,342.56,203,383.34s107.55,46.38,153.07,15.17S377,327.83,402.72,271.56s42.49-68.19,28.69-126.42S335,50.12,252.77,65.51,131.92,120.89,131.92,120.89Z" style="fill: rgb(146, 227, 169); transform-origin: 264.029px 240.241px;" id="eldrcvbw5x0ac" class="animable"></path><g id="elhqx2kjwhiip"><path d="M131.92,120.89s-48.27,45.74-39.06,109.2S158.55,342.56,203,383.34s107.55,46.38,153.07,15.17S377,327.83,402.72,271.56s42.49-68.19,28.69-126.42S335,50.12,252.77,65.51,131.92,120.89,131.92,120.89Z" style="fill: rgb(255, 255, 255); opacity: 0.7; transform-origin: 264.029px 240.241px;" class="animable"></path></g></g><g id="freepik--Window--inject-2750" class="animable" style="transform-origin: 342.35px 179.605px;"><polygon points="339.91 111.11 267.69 111.11 268.42 100.58 340.64 100.58 339.91 111.11" style="fill: rgb(204, 204, 204); transform-origin: 304.165px 105.845px;" id="el1d274qb8152" class="animable"></polygon><polygon points="339.91 125.86 267.69 125.86 268.42 115.33 340.64 115.33 339.91 125.86" style="fill: rgb(204, 204, 204); transform-origin: 304.165px 120.595px;" id="eltq2jojbw8d" class="animable"></polygon><polygon points="339.91 140.62 267.69 140.62 268.42 130.08 340.64 130.08 339.91 140.62" style="fill: rgb(204, 204, 204); transform-origin: 304.165px 135.35px;" id="elb5infdqo5zv" class="animable"></polygon><polygon points="339.91 155.37 267.69 155.37 268.42 144.83 340.64 144.83 339.91 155.37" style="fill: rgb(204, 204, 204); transform-origin: 304.165px 150.1px;" id="elox3zyujx8ib" class="animable"></polygon><polygon points="339.91 170.12 267.69 170.12 268.42 159.58 340.64 159.58 339.91 170.12" style="fill: rgb(204, 204, 204); transform-origin: 304.165px 164.85px;" id="el8n5crmgltne" class="animable"></polygon><polygon points="339.91 184.87 267.69 184.87 268.42 174.34 340.64 174.34 339.91 184.87" style="fill: rgb(204, 204, 204); transform-origin: 304.165px 179.605px;" id="elyw6ivx6a4gg" class="animable"></polygon><polygon points="339.91 199.62 267.69 199.62 268.42 189.09 340.64 189.09 339.91 199.62" style="fill: rgb(204, 204, 204); transform-origin: 304.165px 194.355px;" id="el703rhzbdfwv" class="animable"></polygon><polygon points="339.91 214.38 267.69 214.38 268.42 203.84 340.64 203.84 339.91 214.38" style="fill: rgb(204, 204, 204); transform-origin: 304.165px 209.11px;" id="elq5alejppbe7" class="animable"></polygon><polygon points="339.91 229.13 267.69 229.13 268.42 218.59 340.64 218.59 339.91 229.13" style="fill: rgb(204, 204, 204); transform-origin: 304.165px 223.86px;" id="el5fupmc1pll5" class="animable"></polygon><polygon points="339.91 243.88 267.69 243.88 268.42 233.34 340.64 233.34 339.91 243.88" style="fill: rgb(204, 204, 204); transform-origin: 304.165px 238.61px;" id="elmm27sbdg5j" class="animable"></polygon><polygon points="339.91 258.63 267.69 258.63 268.42 248.09 340.64 248.09 339.91 258.63" style="fill: rgb(204, 204, 204); transform-origin: 304.165px 253.36px;" id="elu3nrvohs67s" class="animable"></polygon><polygon points="416.28 111.11 344.05 111.11 344.78 100.58 417.01 100.58 416.28 111.11" style="fill: rgb(204, 204, 204); transform-origin: 380.53px 105.845px;" id="elcp3pe82xjzu" class="animable"></polygon><polygon points="416.28 125.86 344.05 125.86 344.78 115.33 417.01 115.33 416.28 125.86" style="fill: rgb(204, 204, 204); transform-origin: 380.53px 120.595px;" id="el5uyraxujo9j" class="animable"></polygon><polygon points="416.28 140.62 344.05 140.62 344.78 130.08 417.01 130.08 416.28 140.62" style="fill: rgb(204, 204, 204); transform-origin: 380.53px 135.35px;" id="el0mu6h5tgxzh9" class="animable"></polygon><polygon points="416.28 155.37 344.05 155.37 344.78 144.83 417.01 144.83 416.28 155.37" style="fill: rgb(204, 204, 204); transform-origin: 380.53px 150.1px;" id="el74if6awbnn" class="animable"></polygon><polygon points="416.28 170.12 344.05 170.12 344.78 159.58 417.01 159.58 416.28 170.12" style="fill: rgb(204, 204, 204); transform-origin: 380.53px 164.85px;" id="el9fwijcq2fx4" class="animable"></polygon><polygon points="416.28 184.87 344.05 184.87 344.78 174.34 417.01 174.34 416.28 184.87" style="fill: rgb(204, 204, 204); transform-origin: 380.53px 179.605px;" id="el5ejqg128fju" class="animable"></polygon><polygon points="416.28 199.62 344.05 199.62 344.78 189.09 417.01 189.09 416.28 199.62" style="fill: rgb(204, 204, 204); transform-origin: 380.53px 194.355px;" id="eljfijvzghn9p" class="animable"></polygon><polygon points="416.28 214.38 344.05 214.38 344.78 203.84 417.01 203.84 416.28 214.38" style="fill: rgb(204, 204, 204); transform-origin: 380.53px 209.11px;" id="elzqrjyrudbqr" class="animable"></polygon><polygon points="416.28 229.13 344.05 229.13 344.78 218.59 417.01 218.59 416.28 229.13" style="fill: rgb(204, 204, 204); transform-origin: 380.53px 223.86px;" id="elhitrwkck8" class="animable"></polygon><polygon points="416.28 243.88 344.05 243.88 344.78 233.34 417.01 233.34 416.28 243.88" style="fill: rgb(204, 204, 204); transform-origin: 380.53px 238.61px;" id="elohpkutlzxfb" class="animable"></polygon><polygon points="416.28 258.63 344.05 258.63 344.78 248.09 417.01 248.09 416.28 258.63" style="fill: rgb(204, 204, 204); transform-origin: 380.53px 253.36px;" id="elddzifz83pnk" class="animable"></polygon></g><g id="freepik--Picture--inject-2750" class="animable" style="transform-origin: 182.95px 164.01px;"><rect x="108.34" y="100" width="149.22" height="128.02" style="fill: rgb(146, 227, 169); transform-origin: 182.95px 164.01px;" id="el59bownzl6bc" class="animable"></rect><rect x="115.8" y="106.4" width="134.29" height="115.22" style="fill: rgb(255, 255, 255); transform-origin: 182.945px 164.01px;" id="elut5klxbwgeb" class="animable"></rect><g style="clip-path: url(&quot;#freepik--clip-path--inject-2750&quot;); transform-origin: 182.945px 164.015px;" id="elzywterupawf" class="animable"><path d="M250.09,141.33c-24.15,17.18-58.74,28.58-98.87,46.49A165.3,165.3,0,0,0,115.8,209v12.63H250.09Z" style="fill: rgb(146, 227, 169); transform-origin: 182.945px 181.48px;" id="eldsewvm2pfxi" class="animable"></path><path d="M250.09,106.4H196.2c-6,5.13-13.09,10.86-21.47,17-30.67,22.49-17.38,45,19.43,28.62,18.89-8.39,39.92-27.82,55.93-44.75Z" style="fill: rgb(146, 227, 169); transform-origin: 203.889px 132.016px;" id="el855bfi03y5q" class="animable"></path><path d="M139,119.32c0-9.39-11.69-2-23.15,7.44v23.71C127,139.53,139,127.72,139,119.32Z" style="fill: rgb(146, 227, 169); transform-origin: 127.425px 132.723px;" id="el5dtu81f61gf" class="animable"></path><path d="M150.2,156.64a10.74,10.74,0,1,1-10.74-10.74A10.74,10.74,0,0,1,150.2,156.64Z" style="fill: rgb(146, 227, 169); transform-origin: 139.46px 156.64px;" id="el6cdhglqq36" class="animable"></path><g id="elrusgd8d6wms"><path d="M250.09,141.33c-24.15,17.18-58.74,28.58-98.87,46.49A165.3,165.3,0,0,0,115.8,209v12.63H250.09Z" style="fill: rgb(255, 255, 255); opacity: 0.75; transform-origin: 182.945px 181.48px;" class="animable"></path></g><g id="elv14wlcuyrja"><path d="M250.09,106.4H196.2c-6,5.13-13.09,10.86-21.47,17-30.67,22.49-17.38,45,19.43,28.62,18.89-8.39,39.92-27.82,55.93-44.75Z" style="fill: rgb(255, 255, 255); opacity: 0.75; transform-origin: 203.889px 132.016px;" class="animable"></path></g><g id="elf70la5oxwpu"><g style="opacity: 0.75; transform-origin: 127.425px 132.723px;" class="animable"><path d="M139,119.32c0-9.39-11.69-2-23.15,7.44v23.71C127,139.53,139,127.72,139,119.32Z" style="fill: rgb(255, 255, 255); transform-origin: 127.425px 132.723px;" id="el7beabghcv5c" class="animable"></path></g></g><g id="el4jq00ev2kei"><path d="M150.2,156.64a10.74,10.74,0,1,1-10.74-10.74A10.74,10.74,0,0,1,150.2,156.64Z" style="fill: rgb(255, 255, 255); opacity: 0.75; transform-origin: 139.46px 156.64px;" class="animable"></path></g></g><path d="M226.88,190.89a14.32,14.32,0,1,1-14.31-14.32A14.31,14.31,0,0,1,226.88,190.89Z" style="fill: rgb(255, 255, 255); transform-origin: 212.56px 190.89px;" id="elreyq8pn2qn" class="animable"></path></g><g id="freepik--Plants--inject-2750" class="animable" style="transform-origin: 414.175px 360.01px;"><path d="M428.74,363.88a22.52,22.52,0,0,0-5.08,10.56l-10.19,5.71v-27l.2.27,16.23-11.88c2.05.32,9.93,1.22,17.11-2.65,8.34-4.49,14.43-19.87,14.43-19.87s-19.88-2.25-26.61,6.09c-5.46,6.76-5.65,13.31-5.52,15.54l-15.84,11.59V332.29a22.06,22.06,0,0,0,12.07-14.57c2.88-11.22-12.5-33.33-12.5-33.33s-16,22.76-12.83,34.3c2.72,9.77,10,12.87,12.19,13.59v43.25L401,366c.26-2.28.47-9.41-5.88-16.55-7.7-8.66-28.21-8-28.21-8s8.65,17.31,16,23.08c6.44,5,15.33,3,17.47,2.39l12,10v13.15H394.53l7.29,45.56h21.87L431,390.08H413.47v-8.7l11.2-6.28c2.72.76,10.33,2.32,17.53-1.28,9-4.49,16.35-14.11,16.35-14.11S437.08,354.26,428.74,363.88Z" style="fill: rgb(146, 227, 169); transform-origin: 414.175px 360.01px;" id="eledha4a06jyr" class="animable"></path><g id="elyuvwd8dq74"><path d="M428.74,363.88a22.52,22.52,0,0,0-5.08,10.56l-10.19,5.71v-27l.2.27,16.23-11.88c2.05.32,9.93,1.22,17.11-2.65,8.34-4.49,14.43-19.87,14.43-19.87s-19.88-2.25-26.61,6.09c-5.46,6.76-5.65,13.31-5.52,15.54l-15.84,11.59V332.29a22.06,22.06,0,0,0,12.07-14.57c2.88-11.22-12.5-33.33-12.5-33.33s-16,22.76-12.83,34.3c2.72,9.77,10,12.87,12.19,13.59v43.25L401,366c.26-2.28.47-9.41-5.88-16.55-7.7-8.66-28.21-8-28.21-8s8.65,17.31,16,23.08c6.44,5,15.33,3,17.47,2.39l12,10v13.15H394.53l7.29,45.56h21.87L431,390.08H413.47v-8.7l11.2-6.28c2.72.76,10.33,2.32,17.53-1.28,9-4.49,16.35-14.11,16.35-14.11S437.08,354.26,428.74,363.88Z" style="fill: rgb(255, 255, 255); opacity: 0.5; transform-origin: 414.175px 360.01px;" class="animable"></path></g></g><g id="freepik--Desk--inject-2750" class="animable" style="transform-origin: 228.193px 331.253px;"><path d="M408.53,226.23l-29.43.25s-2-.25-2.43,1.21c0,0-5.11,12.9-5.35,17.52s1,3.89-1,10-7.54,20.43-10.7,32.11c-4.25,15.69-5.36,32.35-5.63,48.55,0,2.6-1.6,25,2.45,25,3.36,0,34.33,4.11,34.7-1.86,1.49-23.8-2.81-47.05,5.45-70.19,3.21-9,6.89-18.48,9.62-27.88s3.2-19.18,5-28.8C412.42,225.5,408.53,226.23,408.53,226.23Z" style="fill: rgb(38, 50, 56); transform-origin: 382.561px 294.228px;" id="elwlsmnu2e9x" class="animable"></path><path d="M411.42,229.15c-.29-3.4-2.89-2.92-2.89-2.92l-29.43.25s-2-.25-2.43,1.21c0,0-5.11,12.9-5.35,17.52a21.2,21.2,0,0,0,.1,3.66l.62,1s1,8.51,12.65,9,18.25-4.87,20.68-10,3.41-13.38,5.35-18.25A16.16,16.16,0,0,1,411.42,229.15Z" style="fill: rgb(146, 227, 169); transform-origin: 391.351px 242.554px;" id="elmowun53kv8l" class="animable"></path><path d="M404.59,238.65c-2,7.11-.79,9.08-2.76,21.32s-9.08,26-11.85,38.69-1.57,57.24-1.18,59.22a17.12,17.12,0,0,1,.17,3.17c1.33-.5,2.13-1.18,2.19-2.11,1.49-23.8-2.81-47.05,5.45-70.19,3.21-9,6.89-18.48,9.62-27.88s3.2-19.18,5-28.8c.75-4-.43-5.31-1.46-5.7l0,0A53,53,0,0,0,404.59,238.65Z" style="fill: rgb(146, 227, 169); transform-origin: 399.836px 293.71px;" id="eldr98k7jhxrh" class="animable"></path><path d="M347.74,418.28l-.2-.16V390.64h3.95V373.27h-14.6v17.37h3.94v27.95l-34.94,11.14v2.76a3.16,3.16,0,1,0,6.32,0v-.39l29.22-3.4v4.19a2.76,2.76,0,0,0,5.52,0v-4.33l30.4,3.54v.39a3.16,3.16,0,1,0,6.32,0v-2.76Z" style="fill: rgb(38, 50, 56); transform-origin: 344.78px 404.46px;" id="elts2ri06oi6k" class="animable"></path><rect x="298.63" y="356.33" width="94.77" height="20.15" rx="4" style="fill: rgb(38, 50, 56); transform-origin: 346.015px 366.405px;" id="elp7m8ahkl60g" class="animable"></rect><path d="M47.84,226.23l29.43.25s2-.25,2.44,1.21c0,0,5.11,12.9,5.35,17.52s-1,3.89,1,10,7.54,20.43,10.7,32.11c4.26,15.69,5.36,32.35,5.63,48.55,0,2.6,1.6,25-2.45,25-3.35,0-34.32,4.11-34.7-1.86-1.48-23.8,2.81-47.05-5.45-70.19-3.21-9-6.89-18.48-9.61-27.88s-3.2-19.18-5-28.8C44,225.5,47.84,226.23,47.84,226.23Z" style="fill: rgb(38, 50, 56); transform-origin: 73.8282px 294.228px;" id="elku3kmrqecab" class="animable"></path><path d="M45,229.15c.29-3.4,2.88-2.92,2.88-2.92l29.43.25s2-.25,2.44,1.21c0,0,5.11,12.9,5.35,17.52a22,22,0,0,1-.11,3.66l-.62,1s-1,8.51-12.65,9S53.44,254,51,248.86s-3.4-13.38-5.35-18.25A13.74,13.74,0,0,0,45,229.15Z" style="fill: rgb(146, 227, 169); transform-origin: 65.0656px 242.554px;" id="eljk8bj228sxq" class="animable"></path><path d="M51.78,238.65c2,7.11.79,9.08,2.76,21.32s9.09,26,11.85,38.69S68,355.9,67.57,357.88a18,18,0,0,0-.17,3.17c-1.32-.5-2.13-1.18-2.19-2.11-1.48-23.8,2.81-47.05-5.45-70.19-3.21-9-6.89-18.48-9.61-27.88s-3.2-19.18-5-28.8c-.74-4,.44-5.31,1.46-5.7l0,0A52.5,52.5,0,0,1,51.78,238.65Z" style="fill: rgb(146, 227, 169); transform-origin: 56.5473px 293.71px;" id="elgwhuqi7ig9a" class="animable"></path><path d="M108.63,418.28l.2-.16V390.64h-4V373.27h14.61v17.37h-3.95v27.95l34.94,11.14v2.76a3.16,3.16,0,0,1-6.32,0v-.39L115,428.7v4.19a2.77,2.77,0,0,1-5.53,0v-4.33L79,432.1v.39a3.16,3.16,0,1,1-6.31,0v-2.76Z" style="fill: rgb(38, 50, 56); transform-origin: 111.557px 404.549px;" id="elseq8zw0kh9h" class="animable"></path><g id="el9sxxhzapenk"><rect x="62.98" y="356.33" width="94.77" height="20.15" rx="4" style="fill: rgb(38, 50, 56); transform-origin: 110.365px 366.405px; transform: rotate(180deg);" class="animable"></rect></g><rect x="134.4" y="299.74" width="237.6" height="136.56" style="fill: rgb(204, 204, 204); transform-origin: 253.2px 368.02px;" id="elzxs2n4iyp1r" class="animable"></rect><rect x="134.52" y="303.02" width="237.3" height="3.78" style="fill: rgb(38, 50, 56); transform-origin: 253.17px 304.91px;" id="elxsn7nugl2k" class="animable"></rect><rect x="129.11" y="297.5" width="244.65" height="5.97" style="fill: rgb(204, 204, 204); transform-origin: 251.435px 300.485px;" id="elsvdsuj9mlwn" class="animable"></rect></g><g id="freepik--Characters--inject-2750" class="animable animator-active" style="transform-origin: 231.65px 279.287px;"><path d="M197.66,285.64s2.8,12.51,2.64,16-6.75,12.84-6.92,10.7a14.6,14.6,0,0,1,1.16-5.27s-2.31,3.13-3.13,3,.66-4.45.66-4.45-2.47,2.47-3.3,2,1.81-4.12,1.81-4.12-3,3.13-3.12,2.14,2.63-5.1,2.63-5.1-2.8-5.93-3-8.4a8,8,0,0,1,1.64-4.77Z" style="fill: rgb(255, 255, 255); transform-origin: 193.698px 299.147px;" id="elt5k1k0unqsm" class="animable"></path><g style="clip-path: url(&quot;#freepik--clip-path-2--inject-2750&quot;); transform-origin: 193.698px 299.147px;" id="el4w4y39k67m5" class="animable"><path d="M197.66,285.64s2.8,12.51,2.64,16-6.75,12.84-6.92,10.7a14.6,14.6,0,0,1,1.16-5.27s-2.31,3.13-3.13,3,.66-4.45.66-4.45-2.47,2.47-3.3,2,1.81-4.12,1.81-4.12-3,3.13-3.12,2.14,2.63-5.1,2.63-5.1-2.8-5.93-3-8.4a8,8,0,0,1,1.64-4.77Z" style="fill: rgb(217, 217, 217); transform-origin: 193.698px 299.147px;" id="elkxp9sw2waka" class="animable"></path></g><path d="M197.66,285.64s2.8,12.51,2.64,16-6.75,12.84-6.92,10.7a14.6,14.6,0,0,1,1.16-5.27s-2.31,3.13-3.13,3,.66-4.45.66-4.45-2.47,2.47-3.3,2,1.81-4.12,1.81-4.12-3,3.13-3.12,2.14,2.63-5.1,2.63-5.1-2.8-5.93-3-8.4a8,8,0,0,1,1.64-4.77Z" style="fill: none; stroke: rgb(38, 50, 56); stroke-linecap: round; stroke-linejoin: round; transform-origin: 193.698px 299.147px;" id="elai0v5ytazpo" class="animable"></path><path d="M197,285.64s2,8.73,1.82,11.2-2.64,9.71-4.45,8.39,1.15-6.25,1.15-6.25-5.08-3.57-6.25-6.92-.5-4.77-.5-4.77Z" style="fill: rgb(255, 255, 255); transform-origin: 193.705px 295.515px;" id="elo0y0eldcx9k" class="animable"></path><g style="clip-path: url(&quot;#freepik--clip-path-3--inject-2750&quot;); transform-origin: 193.705px 295.515px;" id="elgg76y8x2x8e" class="animable"><path d="M197,285.64s2,8.73,1.82,11.2-2.64,9.71-4.45,8.39,1.15-6.25,1.15-6.25-5.08-3.57-6.25-6.92-.5-4.77-.5-4.77Z" style="fill: rgb(217, 217, 217); transform-origin: 193.705px 295.515px;" id="elox0529g7r1" class="animable"></path></g><path d="M197,285.64s2,8.73,1.82,11.2-2.64,9.71-4.45,8.39,1.15-6.25,1.15-6.25-5.08-3.57-6.25-6.92-.5-4.77-.5-4.77Z" style="fill: none; stroke: rgb(38, 50, 56); stroke-linecap: round; stroke-linejoin: round; transform-origin: 193.705px 295.515px;" id="elvhjr5shlekb" class="animable"></path><polygon points="190.97 244.73 197.98 286.48 188.1 288.71 178.22 256.52 190.97 244.73" style="fill: rgb(38, 50, 56); stroke: rgb(38, 50, 56); stroke-linecap: round; stroke-linejoin: round; transform-origin: 188.1px 266.72px;" id="el0aw5t3fs8h1" class="animable"></polygon><path d="M188.1,265.13s.64,49.72,1.59,63.11-2.55,31.24-5.73,36.34-17.22,37-16.58,38.89,3.51,7.65,3.51,9.24v6.69s15.93,10.52,17.21,10.52,2.87,2.55-.32,4.47-38.89,1.91-40.48.63a7.72,7.72,0,0,1-2.23-3.5s-5.1,1.91-4.78-2.87,6.05-25.18,6.05-25.18-3.5-22.32-2.23-36.66,5.74-31.56,5.74-35.06-4.46-26.78-5.1-30.6-9.88-14.67-5.74-23.27,7.33-22.32,8.61-23.27,18.49-1.6,25.5,0S187.78,256.2,188.1,265.13Z" style="fill: rgb(38, 50, 56); stroke: rgb(38, 50, 56); stroke-linecap: round; stroke-linejoin: round; transform-origin: 163.898px 344.777px;" id="el3xjcn70g92r" class="animable"></path><path d="M156.5,164.91s-5.45,4.88-6.39,6.57-12.38,18-12.57,29.66S146,248.06,146,248.06L133,281.13l3.76,1.5,3.75-4.13v6.2s4.32,3.94,15.58,7.69,25.72-.56,25.72-.56l4.31-27.44v27.07l5.07-3.38L191.6,243s4.13-24.21,4.13-31-11.45-28-16.52-34.16-13.52-11.26-16-13.14S156.5,164.91,156.5,164.91Z" style="fill: rgb(38, 50, 56); transform-origin: 164.365px 228.919px;" id="eld3v9kemetui" class="animable"></path><g style="clip-path: url(&quot;#freepik--clip-path-4--inject-2750&quot;); transform-origin: 164.365px 228.919px;" id="el898xawnl7l6" class="animable"><g id="elhjf3zh4t4i6"><path d="M156.5,164.91s-5.45,4.88-6.39,6.57-12.38,18-12.57,29.66S146,248.06,146,248.06L133,281.13l3.76,1.5,3.75-4.13v6.2s4.32,3.94,15.58,7.69,25.72-.56,25.72-.56l4.31-27.44v27.07l5.07-3.38L191.6,243s4.13-24.21,4.13-31-11.45-28-16.52-34.16-13.52-11.26-16-13.14S156.5,164.91,156.5,164.91Z" style="fill: rgb(255, 255, 255); opacity: 0.17; transform-origin: 164.365px 228.919px;" class="animable"></path></g><path d="M140.46,204.88s6.82,4.83,11.36,6.53" style="fill: none; stroke: rgb(38, 50, 56); stroke-linecap: round; stroke-linejoin: round; transform-origin: 146.14px 208.145px;" id="elhcnapnd6635" class="animable"></path><path d="M142.45,210s7.67,2,11.64,2" style="fill: none; stroke: rgb(38, 50, 56); stroke-linecap: round; stroke-linejoin: round; transform-origin: 148.27px 211px;" id="ely4djy07g1dd" class="animable"></path><polyline points="153.53 255.42 175.11 257.98 173.69 262.52 153.81 260.25" style="fill: none; stroke: rgb(38, 50, 56); stroke-linecap: round; stroke-linejoin: round; transform-origin: 164.32px 258.97px;" id="elzdxkfkm7zvn" class="animable"></polyline></g><path d="M156.5,164.91s-5.45,4.88-6.39,6.57-12.38,18-12.57,29.66S146,248.06,146,248.06L133,281.13l3.76,1.5,3.75-4.13v6.2s4.32,3.94,15.58,7.69,25.72-.56,25.72-.56l4.31-27.44v27.07l5.07-3.38L191.6,243s4.13-24.21,4.13-31-11.45-28-16.52-34.16-13.52-11.26-16-13.14S156.5,164.91,156.5,164.91Z" style="fill: none; stroke: rgb(38, 50, 56); stroke-linecap: round; stroke-linejoin: round; transform-origin: 164.365px 228.919px;" id="eld7vdntbi3wg" class="animable"></path><path d="M155.37,166l20.84,22.53,12.2,23.28s-2.63-17.27-4.88-22S171.14,173.36,170,170.73,155.37,166,155.37,166Z" style="fill: rgb(255, 255, 255); stroke: rgb(38, 50, 56); stroke-linecap: round; stroke-linejoin: round; transform-origin: 171.89px 188.905px;" id="elzy9ij6yst5m" class="animable"></path><path d="M182.64,200.83l5.77,11s-1.79-11.77-3.69-18.52l-1.19-3.45a62.49,62.49,0,0,0-5.42-8l-3.27-.65,1.37,7.36,4.22,3.45Z" style="fill: rgb(38, 50, 56); stroke: rgb(38, 50, 56); stroke-linecap: round; stroke-linejoin: round; transform-origin: 181.625px 196.52px;" id="el59ln91hejbd" class="animable"></path><path d="M177.08,174.49l1.08,1.25,3.39,4,2,10.16-8.69-8.67S176,176,177.08,174.49Z" style="fill: rgb(255, 255, 255); stroke: rgb(38, 50, 56); stroke-linecap: round; stroke-linejoin: round; transform-origin: 179.205px 182.195px;" id="eln45j2xpxmec" class="animable"></path><path d="M186.91,132.62s4.56,3.5,5.13,6.88-1.13,7.14-.94,8.45,3.56,4.32,3.38,5.82-3,2.06-3,2.06-3.06,11.14-3.81,13-4.51,1.31-7.32.94l-5.07,15L158.56,165.1l2.63-7.89s-7.13-8.63-7.7-17.83,6.76-15.58,17.27-16.89,19.34,3.75,20.46,5.82S186.91,132.62,186.91,132.62Z" style="fill: rgb(255, 255, 255); transform-origin: 173.973px 153.523px;" id="elexjzjkcrryj" class="animable"></path><g style="clip-path: url(&quot;#freepik--clip-path-5--inject-2750&quot;); transform-origin: 173.954px 153.523px;" id="elshxzge4plm" class="animable"><path d="M186.91,132.62s4.56,3.5,5.13,6.88-1.13,7.14-.94,8.45,3.56,4.32,3.38,5.82-3,2.06-3,2.06-3.06,11.14-3.81,13-4.51,1.31-7.32.94l-5.07,15L158.56,165.1l2.63-7.89s-7.13-8.63-7.7-17.83,6.76-15.58,17.27-16.89,19.34,3.75,20.46,5.82S186.91,132.62,186.91,132.62Z" style="fill: rgb(217, 217, 217); transform-origin: 173.973px 153.523px;" id="elfxbv7s2vhbd" class="animable"></path><path d="M167.43,175.56c2.82-.57,7.55-1.55,11.81-2.51l1.1-3.26c2.34.31,5.34.75,6.7-.2-3.2-1.32-11.12-3.63-12.74-6.6-2-3.69,5-14.43,5-19.8s-6.71-11.41-6.71-11.41c-3.23-3.07-9.12-4-14.35-4a14.08,14.08,0,0,0-4.78,11.65c.57,9.2,7.7,17.83,7.7,17.83l-2.63,7.89Z" style="fill: rgb(184, 184, 184); transform-origin: 170.231px 151.67px;" id="el2jwkh040sqg" class="animable"></path></g><path d="M186.91,132.62s4.56,3.5,5.13,6.88-1.13,7.14-.94,8.45,3.56,4.32,3.38,5.82-3,2.06-3,2.06-3.06,11.14-3.81,13-4.51,1.31-7.32.94l-5.07,15L158.56,165.1l2.63-7.89s-7.13-8.63-7.7-17.83,6.76-15.58,17.27-16.89,19.34,3.75,20.46,5.82S186.91,132.62,186.91,132.62Z" style="fill: none; stroke: rgb(38, 50, 56); stroke-linecap: round; stroke-linejoin: round; transform-origin: 173.973px 153.523px;" id="elhhc0xu1ool5" class="animable"></path><path d="M186.91,132.62s5.44-2.25,4.31-4.31-9.95-7.14-20.46-5.82-17.83,7.69-17.27,16.89,7.7,17.83,7.7,17.83l-.4,1.2c3.89,1.9,7.91-1.2,7.91-1.2a3.87,3.87,0,0,1-4.51-.75c-2.25-2.06-2.44-8.63.38-9.2s4.69.57,4.69,2.63.56.75,2.07.56.18-4.69,1.12-5.44a14.69,14.69,0,0,0,3.94-3.57c1.69-2.25-3.19-4.12-3.75-6.19S186.91,132.62,186.91,132.62Z" style="fill: rgb(38, 50, 56); stroke: rgb(38, 50, 56); stroke-linecap: round; stroke-linejoin: round; transform-origin: 172.417px 140.65px;" id="elykk9qg91c49" class="animable"></path><polyline points="188.25 147.28 184.77 148.44 187.92 148.44" style="fill: none; stroke: rgb(38, 50, 56); stroke-linecap: round; stroke-linejoin: round; transform-origin: 186.51px 147.86px;" id="eliftzya6fgys" class="animable"></polyline><path d="M189.58,143.8s-1.49-2.15-3.15-1.16-1.82,1.66-1.82,1.66" style="fill: none; stroke: rgb(38, 50, 56); stroke-linecap: round; stroke-linejoin: round; transform-origin: 187.095px 143.34px;" id="elqedyrp6j0i" class="animable"></path><path d="M186,158.88a4.89,4.89,0,0,0,3.48.8" style="fill: none; stroke: rgb(38, 50, 56); stroke-linecap: round; stroke-linejoin: round; transform-origin: 187.74px 159.307px;" id="elnyr8fhwcv1" class="animable"></path><polygon points="157.81 161.53 178.83 182.18 176.96 191 154.62 166.97 157.81 161.53" style="fill: rgb(255, 255, 255); stroke: rgb(38, 50, 56); stroke-linecap: round; stroke-linejoin: round; transform-origin: 166.725px 176.265px;" id="elll8tmlj4qi" class="animable"></polygon><path d="M238.56,240.48s-7.4-4.4-8.6-4-12.8,8.8-12,10.8,7,4.6,10.6,6,11-1.6,11-1.6Z" style="fill: rgb(255, 255, 255); stroke: rgb(38, 50, 56); stroke-linecap: round; stroke-linejoin: round; transform-origin: 228.74px 245.053px;" id="elr51mrj7mzt9" class="animable"></path><path d="M217,238.88s6.4-3.6,7.4-3.6,6.8,5.2,6.8,5.2l-2.4,3.6s7.6,3.8,6.8,5.2-3.8,3.6-7,4-12.2-5.4-12.2-5.4Z" style="fill: rgb(255, 255, 255); transform-origin: 226.03px 244.29px;" id="elkf5kybr5h4" class="animable"></path><g style="clip-path: url(&quot;#freepik--clip-path-6--inject-2750&quot;); transform-origin: 226.03px 244.29px;" id="elusg0yd4gikg" class="animable"><path d="M217,238.88s6.4-3.6,7.4-3.6,6.8,5.2,6.8,5.2l-2.4,3.6s7.6,3.8,6.8,5.2-3.8,3.6-7,4-12.2-5.4-12.2-5.4Z" style="fill: rgb(217, 217, 217); transform-origin: 226.03px 244.29px;" id="elglyr407h16i" class="animable"></path></g><path d="M217,238.88s6.4-3.6,7.4-3.6,6.8,5.2,6.8,5.2l-2.4,3.6s7.6,3.8,6.8,5.2-3.8,3.6-7,4-12.2-5.4-12.2-5.4Z" style="fill: none; stroke: rgb(38, 50, 56); stroke-linecap: round; stroke-linejoin: round; transform-origin: 226.03px 244.29px;" id="el5hpppp6i78n" class="animable"></path><polygon points="212.56 237.28 218.16 238.28 216.36 247.88 211.56 246.28 212.56 237.28" style="fill: rgb(255, 255, 255); stroke: rgb(38, 50, 56); stroke-linecap: round; stroke-linejoin: round; transform-origin: 214.86px 242.58px;" id="elhgz4fd6y1d" class="animable"></polygon><path d="M147.57,181.48s-5.4,10.4-6,15.6,21.4,46.6,23,48,48.39,2.8,48.39,2.8l2-10.2-40-11.4-13.6-41.8" style="fill: rgb(38, 50, 56); transform-origin: 178.259px 214.68px;" id="el3g1dyoro2eb" class="animable"></path><g style="clip-path: url(&quot;#freepik--clip-path-7--inject-2750&quot;); transform-origin: 178.259px 214.68px;" id="eljahvr1j5fn" class="animable"><g id="el4t18gwcus9h"><path d="M147.57,181.48s-5.4,10.4-6,15.6,21.4,46.6,23,48,48.39,2.8,48.39,2.8l2-10.2-40-11.4-13.6-41.8" style="fill: rgb(255, 255, 255); opacity: 0.17; transform-origin: 178.259px 214.68px;" class="animable"></path></g></g><path d="M147.57,181.48s-5.4,10.4-6,15.6,21.4,46.6,23,48,48.39,2.8,48.39,2.8l2-10.2-40-11.4-13.6-41.8" style="fill: none; stroke: rgb(38, 50, 56); stroke-linecap: round; stroke-linejoin: round; transform-origin: 178.259px 214.68px;" id="elyb0j4itxpm" class="animable"></path><path d="M231.56,237.48s-2.8-2.4-3.8.4-7.2,9.6-4.4,9.8,8-5.6,8-5.6" style="fill: rgb(255, 255, 255); stroke: rgb(38, 50, 56); stroke-linecap: round; stroke-linejoin: round; transform-origin: 227.1px 242.104px;" id="eliy7b2ab635m" class="animable"></path><path d="M219.16,248.68s-.72,3.37,1,4.8c1.21,1,1.89-1.8,1.6-3.8S219.76,247.08,219.16,248.68Z" style="fill: rgb(255, 255, 255); stroke: rgb(38, 50, 56); stroke-linecap: round; stroke-linejoin: round; transform-origin: 220.419px 250.727px;" id="eljw83bitz00b" class="animable"></path><path d="M222,249.48s-.72,3.37,1,4.8c1.21,1,1.89-1.8,1.6-3.8S222.56,247.88,222,249.48Z" style="fill: rgb(255, 255, 255); stroke: rgb(38, 50, 56); stroke-linecap: round; stroke-linejoin: round; transform-origin: 223.259px 251.527px;" id="elmsvo1a5sjr" class="animable"></path><path d="M224.76,250.68s-.72,3.37,1,4.8c1.21,1,1.89-1.8,1.6-3.8S225.36,249.08,224.76,250.68Z" style="fill: rgb(255, 255, 255); stroke: rgb(38, 50, 56); stroke-linecap: round; stroke-linejoin: round; transform-origin: 226.019px 252.727px;" id="elvuqb644yguq" class="animable"></path><path d="M227.53,252.31s-.66,2.27.92,3.23c1.11.68,1.74-1.21,1.47-2.56S228.08,251.23,227.53,252.31Z" style="fill: rgb(255, 255, 255); stroke: rgb(38, 50, 56); stroke-linecap: round; stroke-linejoin: round; transform-origin: 228.688px 253.687px;" id="elpqfgs43eu3" class="animable"></path><polygon points="238.56 240.48 239.16 253.28 243.56 252.08 242.56 240.28 238.56 240.48" style="fill: none; stroke: rgb(38, 50, 56); stroke-linecap: round; stroke-linejoin: round; transform-origin: 241.06px 246.78px;" id="elkgijxtervuf" class="animable"></polygon><polygon points="241.56 239.28 243.56 254.48 276.96 250.88 277.76 231.08 241.56 239.28" style="fill: rgb(38, 50, 56); stroke: rgb(38, 50, 56); stroke-linecap: round; stroke-linejoin: round; transform-origin: 259.66px 242.78px;" id="elamr4d688lp" class="animable"></polygon><path d="M183,299.87s-6.06,40.48-6.06,54.19-9.24,36.66-9.56,49.41" style="fill: none; stroke: rgb(255, 255, 255); stroke-linecap: round; stroke-linejoin: round; transform-origin: 175.19px 351.67px;" id="elgwo5fskvdef" class="animable"></path><path d="M147.3,435c1.59,1.28,37.29,1.28,40.48-.63s1.59-4.47.32-4.47-17.21-10.52-17.21-10.52-8.61,6.7-13.39,8.29-12.43,1.91-12.43,1.91v1.92A7.72,7.72,0,0,0,147.3,435Z" style="fill: rgb(255, 255, 255); stroke: rgb(38, 50, 56); stroke-linecap: round; stroke-linejoin: round; transform-origin: 167.358px 427.636px;" id="el5yzxw0ok4id" class="animable"></path><path d="M187.78,434.39c1.68-1,2-2.2,1.8-3.09a78.85,78.85,0,0,1-14.23,1.49c-9.63.26-24.78-.33-30-.55a7.17,7.17,0,0,0,2,2.78C148.89,436.3,184.59,436.3,187.78,434.39Z" style="fill: rgb(255, 255, 255); stroke: rgb(38, 50, 56); stroke-linecap: round; stroke-linejoin: round; transform-origin: 167.491px 433.607px;" id="el3ckc35cy3ae" class="animable"></path><path d="M144.14,431.77l.93-2.17,1.27-26.13s-5.74,20.4-6.05,25.18C140.05,432.13,142.69,432.06,144.14,431.77Z" style="fill: rgb(38, 50, 56); stroke: rgb(38, 50, 56); stroke-linecap: round; stroke-linejoin: round; transform-origin: 143.307px 417.682px;" id="el3ymt48l332d" class="animable"></path><path d="M281.81,291.9s-3.18,47.5,0,66.62S293,410.8,294.24,414.94a22,22,0,0,1,1,7.65l17.85,2.55s-5.42-62.79-5.42-70.12,6.06-62.16,6.06-62.16Z" style="fill: rgb(38, 50, 56); stroke: rgb(38, 50, 56); stroke-linecap: round; stroke-linejoin: round; transform-origin: 297.063px 358.52px;" id="el66uhrtx21hm" class="animable"></path><path d="M295.2,422.59s-19.44,8.29-21.68,9.88,4.79,3.83,13.39,3.83,17.22-1,17.22-1l3.5-1.91.32,2.23h9.24s1.6-7.65,1-9.56a35.26,35.26,0,0,0-1.59-3.83Z" style="fill: rgb(38, 50, 56); stroke: rgb(38, 50, 56); stroke-linecap: round; stroke-linejoin: round; transform-origin: 295.712px 429.265px;" id="elffdj2xynbq6" class="animable"></path><path d="M278.94,288.08s1.6,45.58,5.42,61.84,10.52,55.78,10.52,59.92a24.39,24.39,0,0,1-.95,7L292.65,421a12.83,12.83,0,0,0,1,2.87s8.28,1.91,13.7,1.91a36,36,0,0,0,10-1.51s.17-10,.49-14.75-1.27-35.38-1.27-42.71-1.92-11.48-1.92-20.4-1.59-32.83-1.27-36.66,4.78-8,5.74-12.75,1.91-9.88,1.91-9.88Z" style="fill: rgb(38, 50, 56); stroke: rgb(38, 50, 56); stroke-linecap: round; stroke-linejoin: round; transform-origin: 299.985px 356.45px;" id="el99u3z7xvuk" class="animable"></path><path d="M282.76,336s8.91,61.81,11.14,65.71a11.36,11.36,0,0,1,1,8.12" style="fill: none; stroke: rgb(255, 255, 255); stroke-linecap: round; stroke-linejoin: round; transform-origin: 289.001px 372.915px;" id="eljkv3umi5en" class="animable"></path><path d="M271.29,252.06s-1.19,12.19-1.19,21.51c0,5.2-.05,12-.1,16.92a8.72,8.72,0,0,0,7,8.61,33.43,33.43,0,0,0,6.37.77l-7.49-46.38S272.49,247.76,271.29,252.06Z" style="fill: rgb(38, 50, 56); stroke: rgb(38, 50, 56); stroke-linecap: round; stroke-linejoin: round; transform-origin: 276.685px 275.165px;" id="ely925fyh33pn" class="animable"></path><path d="M306.68,169a20,20,0,0,1,4.94,3.67A37.14,37.14,0,0,1,315,178s13.55,15.62,13.87,17.21-7.65,51.8-7.65,51.8l9.08,47.49s-14.66,8.13-25.82,8.61c-7.85.34-19.66-2.17-26-3.69a6.18,6.18,0,0,1-4.73-5.46c-.62-6.68-1.78-20-2.46-32.61-.78-14.65,1.44-43.67,3-53.87s6.54-24.06,10.36-29.8S299,166,306.68,169Z" style="fill: rgb(38, 50, 56); stroke: rgb(38, 50, 56); stroke-linecap: round; stroke-linejoin: round; transform-origin: 300.714px 235.668px;" id="elcj3ytrou4na" class="animable"></path><path d="M315,178a37.14,37.14,0,0,0-3.34-5.26,20,20,0,0,0-4.94-3.67c-6.36-2.51-14.68,1.13-19.51,5.73-.64,1.42-5.68,12.92-8.07,22.32-2.55,10-2.23,22.64-2.23,22.64s8.45-10.84,19.92-23.59a152.09,152.09,0,0,1,18.7-17.57Z" style="fill: rgb(38, 50, 56); transform-origin: 296.214px 194.005px;" id="elu7gu2uxyca" class="animable"></path><g style="clip-path: url(&quot;#freepik--clip-path-8--inject-2750&quot;); transform-origin: 296.214px 194.005px;" id="eloo1uijzifda" class="animable"><g id="el9q3azie7wqu"><path d="M315,178a37.14,37.14,0,0,0-3.34-5.26,20,20,0,0,0-4.94-3.67c-6.36-2.51-14.68,1.13-19.51,5.73-.64,1.42-5.68,12.92-8.07,22.32-2.55,10-2.23,22.64-2.23,22.64s8.45-10.84,19.92-23.59a152.09,152.09,0,0,1,18.7-17.57Z" style="fill: rgb(255, 255, 255); opacity: 0.17; transform-origin: 296.214px 194.005px;" class="animable"></path></g></g><path d="M315,178a37.14,37.14,0,0,0-3.34-5.26,20,20,0,0,0-4.94-3.67c-6.36-2.51-14.68,1.13-19.51,5.73-.64,1.42-5.68,12.92-8.07,22.32-2.55,10-2.23,22.64-2.23,22.64s8.45-10.84,19.92-23.59a152.09,152.09,0,0,1,18.7-17.57Z" style="fill: none; stroke: rgb(38, 50, 56); stroke-linecap: round; stroke-linejoin: round; transform-origin: 296.214px 194.005px;" id="elm7ntkxyx7e" class="animable"></path><path d="M286.12,182.13s-4.31,13.51-5.62,17.33-1.44,9.81-1.44,9.81,16.14-24.15,20.08-28.21,9.09-10.4,9.09-10.4l-3.47-1Z" style="fill: rgb(255, 255, 255); stroke: rgb(38, 50, 56); stroke-linecap: round; stroke-linejoin: round; transform-origin: 293.645px 189.465px;" id="el7dzjdvtaoky" class="animable"></path><path d="M287.31,177.23s-1.91,5.62-1.91,6-.48,5.74-.48,5.74l6.81-9.21Z" style="fill: rgb(255, 255, 255); stroke: rgb(38, 50, 56); stroke-linecap: round; stroke-linejoin: round; transform-origin: 288.325px 183.1px;" id="el5za1drgrvy6" class="animable"></path><polygon points="304.64 166 286 181.18 288.87 189.54 307.99 170.06 304.64 166" style="fill: rgb(255, 255, 255); stroke: rgb(38, 50, 56); stroke-linecap: round; stroke-linejoin: round; transform-origin: 296.995px 177.77px;" id="elhykr71itg0m" class="animable"></polygon><path d="M302.23,286.4s-2.65,6.59-3.44,8.75-.39,10.62-.29,11.51,1.67,1.08,1.67,1.08.49,6.78,1.08,7a10.5,10.5,0,0,0,1.87.29s1.08,3.45,2.46,3.15a2.24,2.24,0,0,0,1.57-1.87,2.6,2.6,0,0,0,2.36-1.08,12.8,12.8,0,0,0,1.38-2.65s2.36-1.18,2.55-2.07.79-4,.79-4,.69-.2.69-2.26-1.57-14.75-1.57-14.75Z" style="fill: rgb(255, 255, 255); stroke: rgb(38, 50, 56); stroke-linecap: round; stroke-linejoin: round; transform-origin: 306.615px 302.299px;" id="elzmqeqmlla9" class="animable"></path><line x1="300.17" y1="307.74" x2="300.46" y2="301.76" style="fill: none; stroke: rgb(38, 50, 56); stroke-linecap: round; stroke-linejoin: round; transform-origin: 300.315px 304.75px;" id="el71rd2eabd1m" class="animable"></line><line x1="303.12" y1="315.01" x2="303.76" y2="306.16" style="fill: none; stroke: rgb(38, 50, 56); stroke-linecap: round; stroke-linejoin: round; transform-origin: 303.44px 310.585px;" id="elmi5iie1bms" class="animable"></line><line x1="307.15" y1="316.29" x2="307.61" y2="306.71" style="fill: none; stroke: rgb(38, 50, 56); stroke-linecap: round; stroke-linejoin: round; transform-origin: 307.38px 311.5px;" id="elv7i2bekqls" class="animable"></line><line x1="310.89" y1="312.56" x2="311.46" y2="305.89" style="fill: none; stroke: rgb(38, 50, 56); stroke-linecap: round; stroke-linejoin: round; transform-origin: 311.175px 309.225px;" id="elzy23gosytb9" class="animable"></line><path d="M321.66,190.86l7.17,4.3-2.39,49.57-12.75,46.85-12.11-3.18,3.82-37-1.91-37.29s2.71-8.69,8.92-13.47" style="fill: rgb(38, 50, 56); stroke: rgb(38, 50, 56); stroke-linecap: round; stroke-linejoin: round; transform-origin: 315.205px 241.22px;" id="elt05fndxf6cc" class="animable"></path><path d="M306.91,199.23s-3.26,8.28-3.42,14.9" style="fill: none; stroke: rgb(255, 255, 255); stroke-linecap: round; stroke-linejoin: round; transform-origin: 305.2px 206.68px;" id="el8erzziszasr" class="animable"></path><path d="M309.63,203.17s-5.58,9.11-5.58,13.23,1.47,38.5,1.47,38.5l-3.82,29.68" style="fill: none; stroke: rgb(255, 255, 255); stroke-linecap: round; stroke-linejoin: round; transform-origin: 305.665px 243.875px;" id="el1heqo3hrh4qi" class="animable"></path><path d="M275,135.63s-3.83,10.88-3.47,12.44.72,3.94.72,3.94-6,7.41-5.26,8.25,4.06,1.79,4.06,1.79,2.75,11.48,3.83,12.55,7.77-1.31,7.77-1.31l7.17,9.08,14.7-14.1-1.79-7.41s7.77-13.63,7.65-20.09S297,125.71,287.55,125.83s-18.29,3.59-16.5,6.1A13.54,13.54,0,0,0,275,135.63Z" style="fill: rgb(255, 255, 255); transform-origin: 288.654px 154.099px;" id="el1w2iqvzk8ju" class="animable"></path><g style="clip-path: url(&quot;#freepik--clip-path-9--inject-2750&quot;); transform-origin: 293.211px 154.235px;" id="el2f7uwnsapax" class="animable"><path d="M305.74,133.3a21,21,0,0,0-5.29,1.5l-14.09,5.71s-6.71,5.7-6,10.06,6.71,10.4,5.37,14.76-9.73,9.06-9.73,9.06l2.63.1c2-.47,4.06-1.2,4.06-1.2l1.1,1.39,13.58.49,7.19-6.9-1.79-7.41s7.77-13.63,7.65-20.09C310.34,138.39,308.5,135.72,305.74,133.3Z" style="fill: rgb(184, 184, 184); transform-origin: 293.211px 154.235px;" id="elh2orokjjdpn" class="animable"></path></g><path d="M275,135.63s-3.83,10.88-3.47,12.44.72,3.94.72,3.94-6,7.41-5.26,8.25,4.06,1.79,4.06,1.79,2.75,11.48,3.83,12.55,7.77-1.31,7.77-1.31l7.17,9.08,14.7-14.1-1.79-7.41s7.77-13.63,7.65-20.09S297,125.71,287.55,125.83s-18.29,3.59-16.5,6.1A13.54,13.54,0,0,0,275,135.63Z" style="fill: none; stroke: rgb(38, 50, 56); stroke-linecap: round; stroke-linejoin: round; transform-origin: 288.654px 154.099px;" id="elxdk92ia7dd" class="animable"></path><path d="M302.73,160.86s7.77-13.63,7.65-20.09S297,125.71,287.55,125.83s-18.29,3.59-16.5,6.1a13.54,13.54,0,0,0,3.95,3.7s5.86,2.75,5.86,3.47-3.47,4.54-2.27,6.22,6.93,3.7,6.93,3.7-1,3.23.48,3.59,2.15-1.08,3.1-2,4.31-2.28,4.79,1.79a12.35,12.35,0,0,1-2.16,8.25c-.47.35,6.1,4.78,9,3.46.75-.34,1.63-.79,2.51-1.26Z" style="fill: rgb(38, 50, 56); stroke: rgb(38, 50, 56); stroke-linecap: round; stroke-linejoin: round; transform-origin: 290.599px 145.092px;" id="el1x0cskle7ky" class="animable"></path><ellipse cx="274.04" cy="151.77" rx="0.84" ry="3.23" style="fill: none; stroke: rgb(38, 50, 56); stroke-linecap: round; stroke-linejoin: round; transform-origin: 274.04px 151.77px;" id="elffxk4raf7g" class="animable"></ellipse><line x1="275" y1="150.46" x2="289.1" y2="150.58" style="fill: none; stroke: rgb(38, 50, 56); stroke-linecap: round; stroke-linejoin: round; transform-origin: 282.05px 150.52px;" id="elak13c27svf" class="animable"></line><path d="M272.68,146.57s1.34-2.14,2.68.53" style="fill: none; stroke: rgb(38, 50, 56); stroke-linecap: round; stroke-linejoin: round; transform-origin: 274.02px 146.429px;" id="el1su306g1ipm" class="animable"></path><path d="M272.41,164a15.09,15.09,0,0,0,4-2.41" style="fill: none; stroke: rgb(38, 50, 56); stroke-linecap: round; stroke-linejoin: round; transform-origin: 274.41px 162.795px;" id="elsxa26bz1y38" class="animable"></path></g><g id="freepik--Floor--inject-2750" class="animable" style="transform-origin: 250.055px 436.3px;"><line x1="53.27" y1="436.3" x2="446.84" y2="436.3" style="fill: none; stroke: rgb(38, 50, 56); stroke-miterlimit: 10; stroke-width: 2px; transform-origin: 250.055px 436.3px;" id="el2h3czrn6tyz" class="animable"></line></g><defs>     <filter id="active" height="200%">         <feMorphology in="SourceAlpha" result="DILATED" operator="dilate" radius="2"></feMorphology>                <feFlood flood-color="#32DFEC" flood-opacity="1" result="PINK"></feFlood>        <feComposite in="PINK" in2="DILATED" operator="in" result="OUTLINE"></feComposite>        <feMerge>            <feMergeNode in="OUTLINE"></feMergeNode>            <feMergeNode in="SourceGraphic"></feMergeNode>        </feMerge>    </filter>    <filter id="hover" height="200%">        <feMorphology in="SourceAlpha" result="DILATED" operator="dilate" radius="2"></feMorphology>                <feFlood flood-color="#ff0000" flood-opacity="0.5" result="PINK"></feFlood>        <feComposite in="PINK" in2="DILATED" operator="in" result="OUTLINE"></feComposite>        <feMerge>            <feMergeNode in="OUTLINE"></feMergeNode>            <feMergeNode in="SourceGraphic"></feMergeNode>        </feMerge>            <feColorMatrix type="matrix" values="0   0   0   0   0                0   1   0   0   0                0   0   0   0   0                0   0   0   1   0 "></feColorMatrix>    </filter></defs><defs><clipPath id="freepik--clip-path--inject-2750"><rect x="115.8" y="106.4" width="134.29" height="115.22" style="fill:#fff"></rect></clipPath><clipPath id="freepik--clip-path-2--inject-2750"><path d="M197.66,285.64s2.8,12.51,2.64,16-6.75,12.84-6.92,10.7a14.6,14.6,0,0,1,1.16-5.27s-2.31,3.13-3.13,3,.66-4.45.66-4.45-2.47,2.47-3.3,2,1.81-4.12,1.81-4.12-3,3.13-3.12,2.14,2.63-5.1,2.63-5.1-2.8-5.93-3-8.4a8,8,0,0,1,1.64-4.77Z" style="fill:#fff;stroke:#263238;stroke-linecap:round;stroke-linejoin:round"></path></clipPath><clipPath id="freepik--clip-path-3--inject-2750"><path d="M197,285.64s2,8.73,1.82,11.2-2.64,9.71-4.45,8.39,1.15-6.25,1.15-6.25-5.08-3.57-6.25-6.92-.5-4.77-.5-4.77Z" style="fill:#fff;stroke:#263238;stroke-linecap:round;stroke-linejoin:round"></path></clipPath><clipPath id="freepik--clip-path-4--inject-2750"><path d="M156.5,164.91s-5.45,4.88-6.39,6.57-12.38,18-12.57,29.66S146,248.06,146,248.06L133,281.13l3.76,1.5,3.75-4.13v6.2s4.32,3.94,15.58,7.69,25.72-.56,25.72-.56l4.31-27.44v27.07l5.07-3.38L191.6,243s4.13-24.21,4.13-31-11.45-28-16.52-34.16-13.52-11.26-16-13.14S156.5,164.91,156.5,164.91Z" style="fill:#263238;stroke:#263238;stroke-linecap:round;stroke-linejoin:round"></path></clipPath><clipPath id="freepik--clip-path-5--inject-2750"><path d="M186.91,132.62s4.56,3.5,5.13,6.88-1.13,7.14-.94,8.45,3.56,4.32,3.38,5.82-3,2.06-3,2.06-3.06,11.14-3.81,13-4.51,1.31-7.32.94l-5.07,15L158.56,165.1l2.63-7.89s-7.13-8.63-7.7-17.83,6.76-15.58,17.27-16.89,19.34,3.75,20.46,5.82S186.91,132.62,186.91,132.62Z" style="fill:#fff;stroke:#263238;stroke-linecap:round;stroke-linejoin:round"></path></clipPath><clipPath id="freepik--clip-path-6--inject-2750"><path d="M217,238.88s6.4-3.6,7.4-3.6,6.8,5.2,6.8,5.2l-2.4,3.6s7.6,3.8,6.8,5.2-3.8,3.6-7,4-12.2-5.4-12.2-5.4Z" style="fill:#fff;stroke:#263238;stroke-linecap:round;stroke-linejoin:round"></path></clipPath><clipPath id="freepik--clip-path-7--inject-2750"><path d="M147.57,181.48s-5.4,10.4-6,15.6,21.4,46.6,23,48,48.39,2.8,48.39,2.8l2-10.2-40-11.4-13.6-41.8" style="fill:#263238;stroke:#263238;stroke-linecap:round;stroke-linejoin:round"></path></clipPath><clipPath id="freepik--clip-path-8--inject-2750"><path d="M315,178a37.14,37.14,0,0,0-3.34-5.26,20,20,0,0,0-4.94-3.67c-6.36-2.51-14.68,1.13-19.51,5.73-.64,1.42-5.68,12.92-8.07,22.32-2.55,10-2.23,22.64-2.23,22.64s8.45-10.84,19.92-23.59a152.09,152.09,0,0,1,18.7-17.57Z" style="fill:#263238;stroke:#263238;stroke-linecap:round;stroke-linejoin:round"></path></clipPath><clipPath id="freepik--clip-path-9--inject-2750"><path d="M275,135.63s-3.83,10.88-3.47,12.44.72,3.94.72,3.94-6,7.41-5.26,8.25,4.06,1.79,4.06,1.79,2.75,11.48,3.83,12.55,7.77-1.31,7.77-1.31l7.17,9.08,14.7-14.1-1.79-7.41s7.77-13.63,7.65-20.09S297,125.71,287.55,125.83s-18.29,3.59-16.5,6.1A13.54,13.54,0,0,0,275,135.63Z" style="fill:#fff;stroke:#263238;stroke-linecap:round;stroke-linejoin:round"></path></clipPath></defs></svg>